<?xml version="1.0" encoding="UTF-8" standalone="no"?>
<svg
   xmlns:dc="http://purl.org/dc/elements/1.1/"
   xmlns:cc="http://creativecommons.org/ns#"
   xmlns:rdf="http://www.w3.org/1999/02/22-rdf-syntax-ns#"
   xmlns:svg="http://www.w3.org/2000/svg"
   xmlns="http://www.w3.org/2000/svg"
   xmlns:sodipodi="http://sodipodi.sourceforge.net/DTD/sodipodi-0.dtd"
   xmlns:inkscape="http://www.inkscape.org/namespaces/inkscape"
   width="123.77"
   height="48.12"
   version="1.1"
   id="svg16"
   sodipodi:docname="linergy-logo.svg"
   inkscape:version="0.92.2 (30a58d1, 2017-08-07)">
  <metadata
     id="metadata22">
    <rdf:RDF>
      <cc:Work
         rdf:about="">
        <dc:format>image/svg+xml</dc:format>
        <dc:type
           rdf:resource="http://purl.org/dc/dcmitype/StillImage" />
      </cc:Work>
    </rdf:RDF>
  </metadata>
  <defs
     id="defs20" />
  <sodipodi:namedview
     pagecolor="#ffffff"
     bordercolor="#666666"
     borderopacity="1"
     objecttolerance="10"
     gridtolerance="10"
     guidetolerance="10"
     inkscape:pageopacity="0"
     inkscape:pageshadow="2"
     inkscape:window-width="1323"
     inkscape:window-height="717"
     id="namedview18"
     showgrid="false"
     inkscape:zoom="3.8458432"
     inkscape:cx="61.884998"
     inkscape:cy="24.32002"
     inkscape:window-x="43"
     inkscape:window-y="27"
     inkscape:window-maximized="1"
     inkscape:current-layer="svg16" />
  <g
     id="g4531">
    <g
       id="g14"
       word-spacing="0"
       font-weight="400">
      <g
         id="g4"
         style="line-height:125%;-inkscape-font-specification:'Eurostile LT Std 2'">
        <path
           fill="#c60606"
           font-family="Ubuntu Condensed"
           id="path2"
           letter-spacing="3"
           font-size="40"
           d="M8.52 38c-1.973-.054-3.387-.534-4.24-1.44-.853-.934-1.28-2.4-1.28-4.4v-25l3.44-.6v25.68c0 .933.187 1.613.56 2.04.373.4 1.027.68 1.96.84L8.52 38m10.688-.4h-3.44v-21h3.44v21m-1.72-24.72a2.34 2.34 0 0 1-1.6-.6c-.427-.427-.64-.987-.64-1.68 0-.694.213-1.24.64-1.64.453-.427.986-.64 1.6-.64.613 0 1.133.213 1.56.64.453.4.68.946.68 1.64 0 .693-.227 1.253-.68 1.68-.427.4-.947.6-1.56.6"
           style="line-height:125%;-inkscape-font-specification:'Ubuntu Condensed,';text-align:start" />
      </g>
      <g
         id="g8"
         style="line-height:125%;-inkscape-font-specification:'Eurostile LT Std 2'">
        <path
           font-family="Ubuntu Condensed"
           id="path6"
           letter-spacing="3"
           font-size="40"
           d="M28.445 17.2a25.775 25.775 0 0 1 3.2-.72c1.146-.214 2.2-.32 3.16-.32 1.04 0 1.986.146 2.84.44a4.685 4.685 0 0 1 2.16 1.4c.613.666 1.08 1.573 1.4 2.72.346 1.12.52 2.52.52 4.2V37.6h-3.44V25.2c0-2.08-.267-3.6-.8-4.56-.534-.96-1.534-1.44-3-1.44-.774 0-1.64.133-2.6.4v18h-3.44V17.2m24.656 10.92c.027 1.013.12 1.946.28 2.8.16.826.414 1.56.76 2.2a4.136 4.136 0 0 0 1.44 1.44c.614.346 1.387.52 2.32.52a6.68 6.68 0 0 0 2.12-.32c.667-.24 1.147-.44 1.44-.6l.64 2.76c-.346.24-.933.493-1.76.76-.8.293-1.76.44-2.88.44-1.466 0-2.706-.267-3.72-.8a6.767 6.767 0 0 1-2.44-2.24c-.613-.96-1.053-2.107-1.32-3.44-.266-1.334-.4-2.8-.4-4.4 0-3.867.64-6.694 1.92-8.48 1.28-1.787 2.974-2.68 5.08-2.68 2.374 0 4.054.893 5.04 2.68.987 1.786 1.48 4.293 1.48 7.52v.92c0 .293-.013.6-.04.92h-9.96m3.48-9.12c-1.146 0-1.986.573-2.52 1.72-.506 1.146-.813 2.68-.92 4.6h6.36c0-1.947-.2-3.48-.6-4.6-.4-1.147-1.173-1.72-2.32-1.72m23.662.72c-.853-.374-1.813-.56-2.88-.56-.986 0-1.906.173-2.76.52V37.6h-3.44V17.52c.774-.374 1.654-.68 2.64-.92 1.014-.267 2.12-.4 3.32-.4.64 0 1.28.04 1.92.12.64.08 1.24.226 1.8.44l-.6 2.96M99.378 37c0 1.493-.2 2.746-.6 3.76-.374 1.04-.894 1.88-1.56 2.52a6.046 6.046 0 0 1-2.36 1.4c-.88.293-1.827.44-2.84.44-.854 0-1.707-.094-2.56-.28a9.522 9.522 0 0 1-2.36-.84l.72-2.88c.48.266 1.066.506 1.76.72a7.31 7.31 0 0 0 2.16.32c1.306 0 2.333-.374 3.08-1.12.746-.747 1.12-2.027 1.12-3.84v-1a10.2 10.2 0 0 1-1.36.48c-.48.106-1.027.16-1.64.16-2.507 0-4.347-.854-5.52-2.56-1.147-1.734-1.72-4.174-1.72-7.32 0-1.68.146-3.187.44-4.52.32-1.36.8-2.507 1.44-3.44a6.269 6.269 0 0 1 2.56-2.16c1.04-.507 2.306-.76 3.8-.76.986 0 1.946.106 2.88.32.96.186 1.813.44 2.56.76V37m-3.44-17.6a5.462 5.462 0 0 0-1.08-.2 6.35 6.35 0 0 0-.96-.08c-1.6 0-2.774.613-3.52 1.84-.72 1.226-1.08 3.226-1.08 6 0 2.506.36 4.28 1.08 5.32.72 1.013 1.746 1.52 3.08 1.52.453 0 .88-.054 1.28-.16a5.841 5.841 0 0 0 1.2-.44V19.4m17.472 13.84c.773-2.667 1.48-5.347 2.12-8.04.64-2.694 1.253-5.56 1.84-8.6h3.4c-.4 1.946-.84 3.866-1.32 5.76a127.24 127.24 0 0 1-1.44 5.48 115.37 115.37 0 0 1-1.48 5 221.15 221.15 0 0 1-1.36 4.24c-.507 1.493-1 2.746-1.48 3.76-.454 1.04-.96 1.866-1.52 2.48-.534.64-1.12 1.093-1.76 1.36-.64.293-1.4.44-2.28.44-.48 0-.96-.067-1.44-.2a7.274 7.274 0 0 1-1.2-.36l.64-2.8c.693.293 1.346.44 1.96.44.773 0 1.4-.28 1.88-.84.48-.56.946-1.4 1.4-2.52l.4-1a113.81 113.81 0 0 1-1.56-4.6 278.396 278.396 0 0 1-1.52-5.32c-.48-1.84-.947-3.72-1.4-5.64-.454-1.947-.867-3.84-1.24-5.68h3.64a166.1 166.1 0 0 0 .76 4.12c.293 1.493.6 2.986.92 4.48a346.9 346.9 0 0 0 1.04 4.36 82.47 82.47 0 0 0 1 3.68"
           style="line-height:125%;-inkscape-font-specification:'Ubuntu Condensed,';text-align:start" />
      </g>
      <g
         id="g12"
         style="line-height:125%;-inkscape-font-specification:'Eurostile LT Std 2'">
        <path
           fill="#c60606"
           font-family="Ubuntu Condensed"
           id="path10"
           letter-spacing="0"
           font-size="20"
           d="M22.606 5.88h2.7V3h1.48v2.88h2.7v1.46h-2.7v2.9h-1.48v-2.9h-2.7V5.88"
           style="line-height:125%;-inkscape-font-specification:'Ubuntu Condensed,';text-align:start" />
      </g>
    </g>
  </g>
</svg>
